<?xml version="1.0" encoding="UTF-8" standalone="no"?>
<!-- Created with Inkscape (http://www.inkscape.org/) -->

<svg
   width="47.126263"
   height="46.914623"
   viewBox="0 0 47.126262 46.914623"
   version="1.1"
   id="svg1"
   xml:space="preserve"
   xmlns="http://www.w3.org/2000/svg"
   xmlns:svg="http://www.w3.org/2000/svg"><defs
     id="defs1" /><g
     id="layer2"><ellipse
       style="opacity:0.989837;fill:#ffffff;fill-rule:evenodd;stroke:#ffffff;stroke-width:0.920465;stroke-opacity:1"
       id="path4"
       cx="24.70454"
       cy="24.925514"
       rx="14.668038"
       ry="14.977396" /></g><g
     id="layer1"
     transform="translate(-0.57791785,-0.70207887)"><path
       style="fill:#0a1a4c;fill-opacity:1;stroke-width:0.683374"
       d="m 26.602082,41.902417 c 0.216376,-0.01933 0.614703,-0.06723 0.885173,-0.106447 0.27047,-0.03922 0.742563,-0.126821 1.049094,-0.194669 0.306533,-0.06784 0.786001,-0.192958 1.065486,-0.278022 0.279486,-0.08506 0.714695,-0.234138 0.967134,-0.331275 0.252438,-0.09714 0.665519,-0.270707 0.917957,-0.385711 0.252438,-0.115005 0.681403,-0.331233 0.953255,-0.480508 0.271851,-0.149274 0.684932,-0.394157 0.917957,-0.544183 0.233024,-0.150026 0.541704,-0.358396 0.685955,-0.463045 0.144249,-0.104648 0.483567,-0.367313 0.754035,-0.5837 0.27047,-0.216386 0.713056,-0.604734 0.983526,-0.862996 0.27047,-0.258262 0.580485,-0.569659 0.688923,-0.691994 0.108437,-0.122335 0.322502,-0.371573 0.475698,-0.553861 0.153197,-0.182289 0.35305,-0.425632 0.444118,-0.540761 0.09107,-0.11513 0.275912,-0.366322 0.410764,-0.558205 0.134852,-0.191883 0.312169,-0.450924 0.394038,-0.575649 0.08187,-0.124724 0.267364,-0.430864 0.412211,-0.680311 0.144847,-0.249448 0.337177,-0.594837 0.427402,-0.767531 0.09022,-0.172695 0.230562,-0.455286 0.31186,-0.627981 0.0813,-0.172694 0.224783,-0.502383 0.318855,-0.732643 0.09407,-0.23026 0.243219,-0.626078 0.331437,-0.879598 0.08822,-0.253519 0.22774,-0.700955 0.310048,-0.994301 0.08231,-0.293347 0.179887,-0.674654 0.216842,-0.847348 0.03696,-0.172694 0.08771,-0.4153 0.112797,-0.539125 0.02508,-0.123825 0.0816,-0.461364 0.125596,-0.750088 0.04399,-0.288723 0.09946,-0.697646 0.12326,-0.908717 0.02887,-0.256113 0.04321,-0.830547 0.0431,-1.726945 -1.12e-4,-0.914757 -0.01401,-1.454458 -0.04358,-1.692057 -0.02388,-0.191883 -0.06495,-0.512001 -0.09127,-0.711376 -0.02632,-0.199372 -0.08563,-0.552612 -0.131796,-0.784975 -0.04616,-0.232363 -0.09642,-0.485276 -0.111677,-0.562029 -0.01526,-0.07675 -0.04232,-0.202349 -0.06014,-0.279102 -0.01782,-0.07675 -0.04916,-0.202349 -0.06964,-0.279102 -0.02049,-0.07675 -0.0447,-0.1788 -0.05383,-0.226771 -0.0091,-0.04796 -0.02854,-0.118619 -0.04316,-0.156995 -0.01462,-0.03837 -0.04445,-0.140424 -0.06629,-0.226771 -0.02185,-0.08635 -0.05303,-0.184255 -0.06931,-0.217574 -0.01627,-0.03332 -0.02959,-0.08456 -0.02959,-0.11386 0,-0.02931 -0.01384,-0.08054 -0.03074,-0.113858 -0.01691,-0.03332 -0.07074,-0.178326 -0.119624,-0.322239 -0.04889,-0.143911 -0.117656,-0.332306 -0.152833,-0.418653 -0.03518,-0.08635 -0.07896,-0.196244 -0.0973,-0.244215 -0.01834,-0.04796 -0.04637,-0.114479 -0.0623,-0.147799 -0.01593,-0.03332 -0.02896,-0.08434 -0.02896,-0.113385 0,-0.02904 -0.01475,-0.05281 -0.03278,-0.05281 -0.01803,0 -0.03278,-0.02376 -0.03278,-0.05281 0,-0.02904 -0.0135,-0.08007 -0.03002,-0.113386 -0.0165,-0.03332 -0.120123,-0.256823 -0.230251,-0.496677 -0.110129,-0.239853 -0.225708,-0.483196 -0.256844,-0.54076 -0.03113,-0.05756 -0.06767,-0.109897 -0.0812,-0.116293 -0.01352,-0.0065 -0.02459,-0.04172 -0.02459,-0.0785 0,-0.03678 -0.01115,-0.06687 -0.02478,-0.06687 -0.01363,0 -0.04564,-0.05102 -0.07114,-0.113385 -0.0255,-0.06236 -0.05505,-0.121235 -0.06568,-0.130829 -0.01063,-0.0096 -0.06024,-0.08462 -0.110268,-0.166726 -0.05002,-0.0821 -0.118569,-0.201625 -0.152335,-0.2656 -0.03377,-0.06398 -0.08122,-0.152994 -0.105457,-0.19782 -0.02423,-0.04483 -0.06988,-0.112734 -0.101435,-0.15091 -0.03156,-0.03818 -0.05737,-0.08869 -0.05737,-0.112254 0,-0.02357 -0.01182,-0.04807 -0.02626,-0.05448 -0.01445,-0.0065 -0.09877,-0.121526 -0.187392,-0.255843 -0.08862,-0.134318 -0.169719,-0.252064 -0.180217,-0.261658 -0.0105,-0.0096 -0.05477,-0.07239 -0.09839,-0.139551 -0.04362,-0.06715 -0.09454,-0.13955 -0.113165,-0.160869 -0.01862,-0.02133 -0.07812,-0.09979 -0.132215,-0.17439 -0.05409,-0.07458 -0.158396,-0.206283 -0.23179,-0.292658 -0.07339,-0.08637 -0.169088,-0.211992 -0.212654,-0.279151 -0.04357,-0.06716 -0.138422,-0.187042 -0.210792,-0.266406 -0.07237,-0.07937 -0.244943,-0.267759 -0.383502,-0.418654 -0.138557,-0.150895 -0.378103,-0.398332 -0.532324,-0.54986 -0.154221,-0.151528 -0.313785,-0.300102 -0.354584,-0.330165 -0.0408,-0.03006 -0.131416,-0.110179 -0.201366,-0.178035 -0.06995,-0.06786 -0.168559,-0.162625 -0.21913,-0.210596 -0.05057,-0.04797 -0.126116,-0.115749 -0.167875,-0.150618 -0.04176,-0.03487 -0.116498,-0.08928 -0.166084,-0.120907 -0.04959,-0.03163 -0.09016,-0.06982 -0.09016,-0.08487 0,-0.01505 -0.0209,-0.02737 -0.04644,-0.02737 -0.02554,0 -0.05136,-0.01265 -0.05737,-0.02811 -0.006,-0.01546 -0.158459,-0.136609 -0.338772,-0.269218 -0.180313,-0.13261 -0.332759,-0.253407 -0.33877,-0.268437 -0.006,-0.01503 -0.02905,-0.02733 -0.05119,-0.02733 -0.02215,0 -0.06961,-0.02747 -0.105486,-0.06105 -0.03587,-0.03358 -0.101354,-0.08346 -0.145514,-0.110852 -0.04416,-0.02739 -0.109799,-0.06704 -0.145861,-0.08811 -0.03607,-0.02107 -0.127547,-0.0808 -0.203299,-0.132724 -0.07575,-0.05193 -0.230657,-0.147605 -0.344233,-0.212623 -0.113578,-0.06502 -0.272892,-0.153696 -0.354033,-0.197064 -0.08114,-0.04337 -0.184412,-0.09886 -0.22949,-0.123324 -0.04507,-0.02446 -0.170071,-0.09306 -0.277761,-0.152452 -0.107691,-0.05939 -0.214649,-0.107979 -0.237685,-0.107979 -0.02304,0 -0.04189,-0.0157 -0.04189,-0.03489 0,-0.01919 -0.03688,-0.03489 -0.08196,-0.03489 -0.04508,0 -0.08196,-0.0157 -0.08196,-0.03489 0,-0.01919 -0.02233,-0.03489 -0.04962,-0.03489 -0.02729,0 -0.07524,-0.01325 -0.106549,-0.02944 -0.03131,-0.01619 -0.08992,-0.04759 -0.130246,-0.06978 -0.04032,-0.02218 -0.09565,-0.04033 -0.122941,-0.04033 -0.02729,0 -0.04962,-0.0157 -0.04962,-0.034887 0,-0.019189 -0.02724,-0.034887 -0.06054,-0.034887 -0.03329,0 -0.103368,-0.021837 -0.155724,-0.048527 C 30.972429,9.870966 30.87795,9.825458 30.81484,9.7965264 30.75173,9.7675954 30.618955,9.7168884 30.519783,9.6838455 c -0.09917,-0.033043 -0.20593,-0.073882 -0.23724,-0.090753 -0.03131,-0.016871 -0.08576,-0.030675 -0.121006,-0.030675 -0.03524,0 -0.0732,-0.015699 -0.08434,-0.034888 -0.01115,-0.019188 -0.0554,-0.034887 -0.09835,-0.034887 -0.04295,0 -0.08721,-0.015699 -0.09835,-0.034888 -0.01115,-0.019189 -0.06278,-0.034887 -0.114745,-0.034887 -0.05197,0 -0.102637,-0.014041 -0.112604,-0.031203 -0.01,-0.017162 -0.07354,-0.039821 -0.141267,-0.050356 -0.06773,-0.010534 -0.174782,-0.028961 -0.237892,-0.04095 -0.06311,-0.011988 -0.144249,-0.034637 -0.180312,-0.050331 -0.03606,-0.015695 -0.124579,-0.045033 -0.196704,-0.065198 -0.07213,-0.020164 -0.197528,-0.052588 -0.278669,-0.072054 -0.08114,-0.019466 -0.295057,-0.060462 -0.47537,-0.091102 -0.180314,-0.03064 -0.390753,-0.070653 -0.467645,-0.088917 -0.07689,-0.018265 -0.195653,-0.033209 -0.263913,-0.033209 -0.06826,0 -0.138124,-0.014525 -0.155254,-0.032285 -0.01713,-0.017753 -0.222933,-0.042558 -0.45734,-0.055112 -0.234407,-0.012554 -0.883533,-0.023271 -1.442504,-0.023815 -0.558969,-5.412e-4 -1.156462,0.00928 -1.327759,0.021822 -0.171298,0.012547 -0.340956,0.03726 -0.377019,0.054914 -0.03607,0.017661 -0.176215,0.039407 -0.31145,0.048322 -0.135234,0.00892 -0.334399,0.030501 -0.442585,0.047958 -0.108188,0.017457 -0.263094,0.048649 -0.344235,0.069314 -0.08114,0.020665 -0.236046,0.055736 -0.344233,0.077936 -0.108189,0.022199 -0.255717,0.056681 -0.327842,0.076625 -0.07213,0.019944 -0.160644,0.049103 -0.196705,0.064796 -0.03607,0.015694 -0.109828,0.036487 -0.163922,0.046209 -0.05409,0.00972 -0.16474,0.035475 -0.245882,0.05723 -0.08114,0.021756 -0.195612,0.048006 -0.25438,0.058333 -0.05877,0.010327 -0.114963,0.032743 -0.124876,0.049811 -0.0099,0.017069 -0.06054,0.031034 -0.112506,0.031034 -0.05197,0 -0.103601,0.015699 -0.114744,0.034888 -0.01115,0.019189 -0.04909,0.034887 -0.08434,0.034887 -0.03524,0 -0.0897,0.013595 -0.121006,0.030211 -0.03131,0.016617 -0.108563,0.049225 -0.171673,0.072464 -0.06311,0.023239 -0.227953,0.086836 -0.366319,0.141327 -0.138366,0.054491 -0.308024,0.1255301 -0.377019,0.1578642 -0.06899,0.032334 -0.162325,0.07472 -0.207403,0.09419 -0.04508,0.01947 -0.107578,0.04927 -0.138888,0.06622 -0.03131,0.01695 -0.07926,0.03082 -0.106548,0.03082 -0.02729,0 -0.04962,0.0157 -0.04962,0.03489 0,0.01919 -0.03688,0.03489 -0.08196,0.03489 -0.04508,0 -0.08196,0.0157 -0.08196,0.03489 0,0.01919 -0.02149,0.03489 -0.04773,0.03489 -0.02625,0 -0.118459,0.04419 -0.204901,0.09821 -0.08644,0.05401 -0.245685,0.143708 -0.353873,0.199322 -0.108187,0.05561 -0.201622,0.113467 -0.207633,0.128564 -0.006,0.0151 -0.0392,0.02745 -0.07376,0.02745 -0.03456,0 -0.06284,0.0157 -0.06284,0.03489 0,0.01919 -0.02951,0.03489 -0.06557,0.03489 -0.03607,0 -0.06557,0.0157 -0.06557,0.03489 0,0.01919 -0.02274,0.03489 -0.05055,0.03489 -0.0278,0 -0.07844,0.02747 -0.112534,0.06105 -0.03409,0.03358 -0.118304,0.09245 -0.187139,0.130829 -0.06883,0.03838 -0.191539,0.116062 -0.27268,0.172633 -0.08114,0.05657 -0.154905,0.11152 -0.163922,0.122107 -0.009,0.01059 -0.04958,0.03887 -0.09016,0.06286 -0.04057,0.02398 -0.106958,0.06323 -0.147528,0.08722 -0.04057,0.02398 -0.08114,0.05199 -0.09016,0.06224 -0.009,0.01025 -0.119662,0.09579 -0.245882,0.1901 -0.126219,0.09431 -0.234406,0.184045 -0.240417,0.199417 -0.006,0.01537 -0.02814,0.02799 -0.04917,0.02803 -0.02103,4.5e-5 -0.08988,0.04711 -0.152993,0.104581 -0.06311,0.05748 -0.131959,0.104537 -0.152995,0.104582 -0.02103,4.5e-5 -0.04317,0.01213 -0.04918,0.02684 -0.006,0.01472 -0.08446,0.08929 -0.174339,0.165717 -0.08987,0.07643 -0.194218,0.170354 -0.231878,0.20873 -0.03766,0.03838 -0.141163,0.137822 -0.230006,0.220991 -0.08884,0.08317 -0.285121,0.271562 -0.436175,0.418653 -0.151054,0.147091 -0.335465,0.331327 -0.409802,0.409412 -0.07434,0.07809 -0.233647,0.25863 -0.354022,0.401209 -0.120374,0.14258 -0.250521,0.298486 -0.289214,0.346456 -0.03869,0.04797 -0.124616,0.155421 -0.190939,0.238778 -0.06632,0.08336 -0.165344,0.208953 -0.220045,0.279102 -0.0547,0.07014 -0.139307,0.185058 -0.188013,0.255353 -0.04871,0.07029 -0.107706,0.148792 -0.131112,0.174438 -0.0234,0.02565 -0.07824,0.101579 -0.121857,0.168737 -0.04362,0.06715 -0.08787,0.129957 -0.09835,0.139552 -0.01048,0.0096 -0.06892,0.101304 -0.129865,0.2038 -0.06095,0.102495 -0.126853,0.20502 -0.146453,0.227832 -0.0196,0.02281 -0.06236,0.0881 -0.09503,0.145078 -0.03267,0.05698 -0.06758,0.131076 -0.07759,0.164655 -0.01001,0.03358 -0.03123,0.06106 -0.04716,0.06106 -0.01593,0 -0.02896,0.02355 -0.02896,0.05233 0,0.02878 -0.01475,0.05233 -0.03278,0.05233 -0.01803,0 -0.03278,0.01491 -0.03278,0.03314 0,0.01823 -0.0426,0.100649 -0.09467,0.183161 -0.05207,0.08251 -0.145441,0.252068 -0.207494,0.376792 -0.06205,0.124724 -0.133787,0.26602 -0.159407,0.31399 -0.02562,0.04796 -0.05456,0.09507 -0.06432,0.104664 -0.0098,0.0096 -0.11763,0.237236 -0.239719,0.505872 -0.122089,0.268636 -0.235818,0.51569 -0.252731,0.549009 -0.01691,0.03332 -0.03075,0.08434 -0.03075,0.113385 0,0.02904 -0.01475,0.05281 -0.03278,0.05281 -0.01803,0 -0.03278,0.03047 -0.03278,0.06772 0,0.03725 -0.01475,0.07742 -0.03278,0.08928 -0.01803,0.01186 -0.03278,0.05224 -0.03278,0.08975 0,0.03751 -0.01706,0.103301 -0.0379,0.146214 -0.02085,0.04291 -0.05035,0.105285 -0.06557,0.138604 -0.01522,0.03332 -0.02767,0.08456 -0.02767,0.113859 0,0.02931 -0.01303,0.08054 -0.02896,0.113858 -0.01593,0.03332 -0.04367,0.09983 -0.06164,0.1478 -0.01797,0.04797 -0.05809,0.157869 -0.08915,0.244216 -0.03106,0.08635 -0.0697,0.184255 -0.08589,0.217575 -0.01618,0.03332 -0.02942,0.09127 -0.02942,0.128771 0,0.03751 -0.01475,0.07789 -0.03278,0.08975 -0.01803,0.01186 -0.03278,0.05896 -0.03278,0.104663 0,0.04571 -0.01475,0.0928 -0.03278,0.104664 -0.01803,0.01186 -0.03278,0.07466 -0.03278,0.13955 0,0.06489 -0.01475,0.127693 -0.03278,0.139551 -0.01803,0.01186 -0.03278,0.07466 -0.03278,0.139552 0,0.06489 -0.01312,0.12662 -0.02916,0.137168 -0.01604,0.01055 -0.03735,0.07035 -0.04736,0.132889 -0.01001,0.06254 -0.03444,0.192207 -0.0543,0.288147 -0.01986,0.09594 -0.04921,0.245087 -0.06523,0.331434 -0.01602,0.08635 -0.04458,0.232617 -0.06348,0.325043 -0.0189,0.09243 -0.04464,0.18575 -0.05721,0.207385 -0.01257,0.02163 -0.03581,0.157957 -0.05166,0.302937 -0.01585,0.14498 -0.03587,0.373497 -0.04449,0.507815 -0.0086,0.134318 -0.02961,0.275614 -0.04662,0.31399 -0.01702,0.03837 -0.03911,0.266019 -0.04909,0.505873 -0.01,0.239853 -0.02553,0.852133 -0.03455,1.360624 -0.01043,0.588041 -0.0044,0.949921 0.01668,0.994301 0.01819,0.03837 0.04008,0.226771 0.04865,0.418653 0.0086,0.191883 0.02993,0.482324 0.04746,0.645424 0.01754,0.1631 0.04621,0.382894 0.06372,0.488429 0.01751,0.105535 0.05755,0.317479 0.08898,0.470985 0.03143,0.153506 0.0705,0.3576 0.08681,0.453541 0.01632,0.09594 0.03806,0.225608 0.04831,0.288148 0.01026,0.06254 0.03177,0.12234 0.04781,0.132888 0.01604,0.01055 0.02916,0.06442 0.02916,0.119724 0,0.0553 0.01475,0.110249 0.03278,0.122108 0.01803,0.01186 0.03278,0.06681 0.03278,0.122108 0,0.0553 0.01475,0.110248 0.03278,0.122106 0.01803,0.01186 0.03278,0.08251 0.03278,0.156995 0,0.07449 0.01475,0.145137 0.03278,0.156995 0.01803,0.01186 0.03278,0.06774 0.03278,0.124167 0,0.05643 0.01475,0.102604 0.03278,0.102604 0.01803,0 0.03278,0.04396 0.03278,0.09769 0,0.05373 0.01174,0.1126 0.02609,0.13083 0.01435,0.01823 0.04543,0.09594 0.06906,0.172694 0.02363,0.07675 0.09407,0.280846 0.156531,0.45354 0.06246,0.172695 0.127279,0.341252 0.144039,0.374571 0.01676,0.03332 0.03048,0.09127 0.03048,0.12877 0,0.03751 0.01475,0.07789 0.03278,0.08975 0.01803,0.01186 0.03278,0.05203 0.03278,0.08928 0,0.03725 0.01115,0.06772 0.02478,0.06772 0.01363,0 0.04449,0.05102 0.06859,0.113385 0.02409,0.06236 0.107166,0.25468 0.184607,0.427376 0.07744,0.172694 0.219527,0.486684 0.315747,0.697755 0.09622,0.21107 0.182856,0.391615 0.192525,0.40121 0.0097,0.0096 0.05543,0.08024 0.101697,0.156994 0.04626,0.07675 0.105051,0.190575 0.130636,0.252937 0.02559,0.06236 0.05767,0.113385 0.0713,0.113385 0.01363,0 0.02478,0.02059 0.02478,0.04575 0,0.02516 0.02951,0.07946 0.06557,0.120648 0.03606,0.0412 0.06559,0.08733 0.06561,0.102521 2.2e-5,0.0152 0.03665,0.07292 0.08139,0.128281 0.04474,0.05536 0.129319,0.180957 0.187952,0.279102 0.05863,0.09814 0.132657,0.20888 0.164496,0.246078 0.03184,0.0372 0.05789,0.08149 0.05789,0.09843 0,0.01694 0.01844,0.05075 0.04098,0.07512 0.02254,0.02437 0.0731,0.08997 0.112356,0.14578 0.03926,0.05581 0.13515,0.19076 0.213097,0.299894 0.07795,0.109136 0.220214,0.297529 0.316149,0.418654 0.09594,0.121123 0.268166,0.33012 0.382735,0.46444 0.11457,0.134318 0.239977,0.283463 0.278682,0.331434 0.03871,0.04796 0.103346,0.126468 0.143646,0.174439 0.0403,0.04796 0.174285,0.181416 0.297744,0.296545 0.123459,0.115131 0.279587,0.265291 0.34695,0.333694 0.06736,0.0684 0.185549,0.178299 0.262634,0.244215 0.07709,0.06591 0.19306,0.168043 0.257723,0.226949 0.06467,0.05891 0.17658,0.152931 0.248705,0.208941 0.07213,0.05601 0.153265,0.126307 0.180312,0.156211 0.02705,0.02991 0.100813,0.09245 0.163922,0.138993 0.06311,0.04655 0.129497,0.09703 0.147529,0.112195 0.01803,0.01517 0.09917,0.08216 0.180312,0.148879 0.08114,0.06672 0.159211,0.121455 0.173488,0.121643 0.01428,1.85e-4 0.05763,0.03173 0.09634,0.07011 0.03871,0.03837 0.08973,0.06977 0.113374,0.06977 0.02365,0 0.04299,0.0157 0.04299,0.03489 0,0.01919 0.01471,0.03489 0.0327,0.03489 0.01798,0 0.176577,0.100809 0.35243,0.224019 0.175854,0.12321 0.415627,0.279232 0.532831,0.346712 0.117203,0.06748 0.456519,0.251584 0.754036,0.409117 0.297516,0.157535 0.570445,0.297817 0.606507,0.311738 0.03606,0.01393 0.139333,0.06069 0.22949,0.103926 0.09016,0.04323 0.200803,0.09443 0.245881,0.113751 0.04507,0.01932 0.111466,0.04759 0.147529,0.06282 0.03607,0.01523 0.187095,0.07604 0.335628,0.135151 0.148533,0.05911 0.332944,0.128632 0.409803,0.154502 0.07686,0.02587 0.20613,0.06679 0.287271,0.09093 0.08114,0.02414 0.177034,0.05662 0.213098,0.07217 0.03606,0.01556 0.109826,0.03802 0.16392,0.04992 0.0541,0.0119 0.149987,0.03559 0.213097,0.05264 0.06311,0.01705 0.173756,0.0488 0.245881,0.07053 0.07213,0.02174 0.182772,0.05229 0.245881,0.0679 0.06311,0.01561 0.299156,0.06919 0.524547,0.119082 0.225392,0.04989 0.564709,0.113597 0.754037,0.141568 0.189329,0.02797 0.499139,0.06792 0.688469,0.08879 0.189328,0.02086 0.417998,0.04257 0.508155,0.04822 0.09016,0.0057 0.569624,0.01296 1.065485,0.01621 0.49586,0.0032 1.0786,-0.0099 1.294975,-0.02921 z m 2.016227,-1.725976 c 0,-0.0096 0.0074,-0.01744 0.0164,-0.01744 0.009,0 0.01639,0.0078 0.01639,0.01744 0,0.0096 -0.0074,0.01744 -0.01639,0.01744 -0.009,0 -0.0164,-0.0078 -0.0164,-0.01744 z m 5.092477,-1.366437 c 0.01202,-0.01279 0.03169,-0.01279 0.04371,0 0.01203,0.01279 0.0022,0.02326 -0.02185,0.02326 -0.02404,0 -0.03388,-0.01046 -0.02185,-0.02326 z m -3.584404,-0.09885 c 0,-0.0096 0.0074,-0.01744 0.01639,-0.01744 0.009,0 0.0164,0.0078 0.0164,0.01744 0,0.0096 -0.0074,0.01744 -0.0164,0.01744 -0.009,0 -0.01639,-0.0078 -0.01639,-0.01744 z M 26.58569,36.548112 c 0,-0.0096 0.0074,-0.01744 0.01639,-0.01744 0.009,0 0.0164,0.0078 0.0164,0.01744 0,0.0096 -0.0074,0.01744 -0.0164,0.01744 -0.009,0 -0.01639,-0.0078 -0.01639,-0.01744 z m -5.573312,-1.709501 c 0,-0.0096 0.0074,-0.01744 0.01639,-0.01744 0.009,0 0.01639,0.0078 0.01639,0.01744 0,0.0096 -0.0074,0.01744 -0.01639,0.01744 -0.009,0 -0.01639,-0.0078 -0.01639,-0.01744 z M 31.470534,34.69906 c 0,-0.0096 0.0074,-0.01744 0.0164,-0.01744 0.009,0 0.0164,0.0078 0.0164,0.01744 0,0.0096 -0.0074,0.01744 -0.0164,0.01744 -0.009,0 -0.0164,-0.0078 -0.0164,-0.01744 z m -0.09835,-0.558204 c 0,-0.0096 0.0074,-0.01744 0.0164,-0.01744 0.009,0 0.01639,0.0078 0.01639,0.01744 0,0.0096 -0.0074,0.01744 -0.01639,0.01744 -0.009,0 -0.0164,-0.0078 -0.0164,-0.01744 z m 7.933772,-2.494478 c 0,-0.02558 0.0098,-0.03605 0.02185,-0.02326 0.01202,0.01279 0.01202,0.03373 0,0.04652 -0.01203,0.01279 -0.02185,0.0023 -0.02185,-0.02326 z m -2.19654,-0.08722 c 0,-0.0096 0.0074,-0.01744 0.0164,-0.01744 0.009,0 0.0164,0.0078 0.0164,0.01744 0,0.0096 -0.0074,0.01744 -0.0164,0.01744 -0.009,0 -0.0164,-0.0078 -0.0164,-0.01744 z m -9.605768,-0.436096 c 0,-0.02558 0.0098,-0.03605 0.02185,-0.02325 0.01202,0.01279 0.01202,0.03373 0,0.04652 -0.01202,0.01279 -0.02185,0.0023 -0.02185,-0.02325 z m 8.491104,-0.156995 c 0,-0.0096 0.0074,-0.01744 0.01639,-0.01744 0.009,0 0.0164,0.0078 0.0164,0.01744 0,0.0096 -0.0074,0.01744 -0.0164,0.01744 -0.009,0 -0.01639,-0.0078 -0.01639,-0.01744 z m -2.786656,-0.366322 c 0,-0.02558 0.0098,-0.03605 0.02185,-0.02326 0.01203,0.01279 0.01203,0.03373 0,0.04652 -0.01202,0.01279 -0.02185,0.0023 -0.02185,-0.02326 z m 5.081548,-0.331433 c 0,-0.0096 0.0074,-0.01744 0.0164,-0.01744 0.009,0 0.01639,0.0078 0.01639,0.01744 0,0.0096 -0.0074,0.01744 -0.01639,0.01744 -0.009,0 -0.0164,-0.0078 -0.0164,-0.01744 z m -22.508585,-0.41229 c -0.0091,-0.02529 -0.01235,-0.208478 -0.0072,-0.407098 0.0065,-0.250467 0.02197,-0.365561 0.05039,-0.375593 0.03127,-0.01104 0.04098,0.0854 0.04098,0.407098 0,0.266335 -0.01245,0.421561 -0.03381,0.421561 -0.0186,0 -0.04127,-0.02069 -0.05039,-0.04597 z m 1.231648,-0.372685 c 0,-0.329838 0.0095,-0.418654 0.04461,-0.418654 0.02454,0 0.103688,0.09812 0.175892,0.218049 0.0722,0.119927 0.148541,0.253373 0.169638,0.296546 0.0211,0.04317 0.052,0.0785 0.06866,0.0785 0.01667,0 0.02721,-0.129522 0.02343,-0.287824 -0.0056,-0.235835 0.002,-0.287824 0.0423,-0.287824 0.04086,0 0.04917,0.06779 0.04917,0.400731 0,0.338438 -0.0081,0.402391 -0.05208,0.411407 -0.03499,0.0072 -0.108491,-0.08719 -0.223834,-0.287346 -0.09446,-0.163912 -0.183712,-0.298022 -0.198342,-0.298022 -0.01463,0 -0.02592,0.01963 -0.02508,0.04361 8.8e-4,0.02399 -8.13e-4,0.15743 -0.0036,0.296546 -0.0029,0.141701 -0.01958,0.252936 -0.03795,0.252936 -0.02004,0 -0.03278,-0.162809 -0.03278,-0.418653 z m 1.796107,0.06354 c -0.009,-0.34613 -0.0123,-0.360534 -0.08502,-0.371503 -0.04161,-0.0063 -0.06989,-0.02982 -0.06284,-0.05234 0.0077,-0.02448 0.08306,-0.04092 0.187666,-0.04092 0.110738,0 0.179858,0.01599 0.188509,0.0436 0.008,0.02543 -0.01434,0.0436 -0.05349,0.0436 -0.06266,0 -0.06778,0.0237 -0.0765,0.354767 -0.0063,0.23964 -0.02226,0.359324 -0.04914,0.368813 -0.02912,0.01027 -0.04233,-0.08266 -0.04917,-0.346044 z m 1.325547,-0.05483 c 0.0092,-0.409931 0.0092,-0.409931 0.197746,-0.420394 0.152634,-0.0085 0.188509,-1.73e-4 0.188509,0.04361 0,0.04062 -0.03579,0.05408 -0.143942,0.05408 -0.13973,0 -0.144329,0.0035 -0.15716,0.12049 -0.01322,0.120489 -0.01322,0.120489 0.135745,0.130829 0.106239,0.0074 0.148964,0.02535 0.148964,0.06267 0,0.03428 -0.03394,0.05328 -0.09835,0.05508 -0.05409,0.0015 -0.116795,0.0054 -0.139333,0.0087 -0.02391,0.0034 -0.04098,0.05684 -0.04098,0.128078 0,0.121461 8.13e-4,0.122106 0.147529,0.122106 0.109281,0 0.147529,0.01356 0.147529,0.05234 0,0.04074 -0.04383,0.05233 -0.197746,0.05233 -0.197745,0 -0.197745,0 -0.188509,-0.40993 z m 1.522773,0.386673 c -0.01203,-0.01279 -0.02166,-0.165863 -0.02141,-0.340156 2.46e-4,-0.174294 0.0098,-0.353976 0.02118,-0.399293 0.01921,-0.07639 0.03364,-0.08126 0.197922,-0.06676 0.09746,0.0086 0.198919,0.03875 0.22547,0.06701 0.02655,0.02825 0.05041,0.111751 0.05302,0.185547 0.0035,0.101255 -0.01352,0.149911 -0.0697,0.198317 -0.07444,0.06414 -0.07444,0.06414 -0.0055,0.188474 0.03792,0.06838 0.06893,0.139133 0.06893,0.157225 0,0.01809 -0.01844,0.03255 -0.04098,0.03212 -0.02254,-4.27e-4 -0.08893,-0.08074 -0.147528,-0.178465 -0.0586,-0.09773 -0.10655,-0.191578 -0.10655,-0.208552 0,-0.01698 0.03637,-0.03087 0.08081,-0.03087 0.04813,0 0.09548,-0.02916 0.117075,-0.07212 0.02821,-0.0561 0.02466,-0.09097 -0.016,-0.156996 -0.03878,-0.06297 -0.08168,-0.08488 -0.166251,-0.08488 -0.113989,0 -0.113989,0 -0.113989,0.366322 0,0.201477 -0.01229,0.366321 -0.02732,0.366321 -0.01503,0 -0.03716,-0.01046 -0.04917,-0.02325 z m 1.606415,-0.0029 c -0.0081,-0.01439 -0.0127,-0.197559 -0.01014,-0.407038 0.003,-0.25408 0.01734,-0.385361 0.04272,-0.394355 0.02092,-0.0074 0.05529,0.007 0.07637,0.03199 0.02107,0.02502 0.114601,0.171074 0.207834,0.32458 0.169513,0.279101 0.169513,0.279101 0.178939,-0.0436 0.0051,-0.177492 0.02363,-0.322713 0.04098,-0.322713 0.01846,0 0.03155,0.173692 0.03155,0.418654 0,0.338742 -0.0089,0.418653 -0.04663,0.418653 -0.02565,0 -0.123536,-0.133446 -0.217527,-0.296546 -0.09399,-0.163101 -0.18365,-0.296545 -0.199245,-0.296545 -0.0156,0 -0.02836,0.133444 -0.02836,0.296545 0,0.1631 -0.01388,0.296546 -0.03085,0.296546 -0.01697,0 -0.03752,-0.01177 -0.04566,-0.02617 z m 1.649312,-0.01744 c -4.58e-4,-0.02399 0.05487,-0.204295 0.122942,-0.400688 0.06808,-0.196392 0.144683,-0.365677 0.170237,-0.376186 0.02556,-0.01051 0.0572,-0.0068 0.07034,0.0082 0.01314,0.01502 0.07587,0.176454 0.139413,0.358742 0.06354,0.182289 0.120407,0.353022 0.126364,0.379406 0.006,0.02638 -0.0056,0.05445 -0.02567,0.06237 -0.02007,0.0079 -0.05611,-0.03722 -0.0801,-0.100302 -0.02399,-0.06309 -0.05442,-0.122756 -0.06762,-0.132602 -0.0132,-0.0098 -0.089,-0.01239 -0.168425,-0.0057 -0.130554,0.01105 -0.148295,0.02365 -0.18487,0.131286 -0.02225,0.06549 -0.05426,0.119064 -0.07112,0.119064 -0.01686,0 -0.03104,-0.01963 -0.0315,-0.0436 z m 0.414146,-0.360454 c -0.01094,-0.03034 -0.0199,-0.07445 -0.0199,-0.098 0,-0.02355 -0.02059,-0.07278 -0.04575,-0.1094 -0.04314,-0.06279 -0.04876,-0.05895 -0.09835,0.06737 -0.02893,0.07368 -0.0526,0.147741 -0.0526,0.164586 0,0.01684 0.05321,0.03063 0.118252,0.03063 0.09436,0 0.114232,-0.01115 0.09835,-0.05518 z m 1.394562,0.308122 c -0.08046,-0.07179 -0.112159,-0.133093 -0.125936,-0.243556 -0.01066,-0.08543 -10e-4,-0.192365 0.02294,-0.253842 0.02274,-0.05843 0.08225,-0.137218 0.132235,-0.175097 0.05288,-0.04006 0.143994,-0.06887 0.217865,-0.06887 0.06984,0 0.163454,0.02657 0.208036,0.05904 0.04458,0.03247 0.0919,0.07564 0.105146,0.09594 0.01325,0.02031 0.02431,0.04868 0.0246,0.06307 2.77e-4,0.01439 -0.01934,0.02617 -0.04359,0.02617 -0.02425,0 -0.0708,-0.03139 -0.103434,-0.06978 -0.03998,-0.04701 -0.100974,-0.06978 -0.18696,-0.06978 -0.09589,0 -0.147607,0.02295 -0.208016,0.09231 -0.05529,0.06348 -0.0804,0.132716 -0.0804,0.221677 0,0.08896 0.02511,0.158193 0.0804,0.221675 0.05857,0.06725 0.112795,0.09231 0.19973,0.09231 0.06942,0 0.153964,-0.02898 0.202124,-0.0693 0.04554,-0.03812 0.09581,-0.06074 0.11172,-0.05027 0.01591,0.01046 0.02894,0.03403 0.02894,0.05237 0,0.01834 -0.04795,0.06445 -0.106549,0.102474 -0.05961,0.03867 -0.164859,0.06919 -0.238924,0.06926 -0.0966,9.5e-5 -0.161431,-0.0258 -0.2399,-0.09581 z m 1.714186,0.04997 c -0.0091,-0.02529 -0.01234,-0.209751 -0.0072,-0.409931 0.0055,-0.212708 0.02303,-0.363962 0.04219,-0.363962 0.01948,0 0.03654,0.166454 0.04203,0.409929 0.0062,0.27242 -0.0024,0.409932 -0.02562,0.409932 -0.01916,0 -0.04231,-0.02069 -0.05143,-0.04597 z m 1.306822,-0.07162 C 29.632965,29.6775 29.62201,29.650144 29.62201,29.483327 c 0,-0.166818 0.01095,-0.194174 0.120567,-0.301072 0.09236,-0.09007 0.149447,-0.117552 0.243991,-0.117452 0.06788,7.2e-5 0.171737,0.03148 0.230788,0.06979 0.05905,0.03831 0.12175,0.109925 0.139333,0.159135 0.01759,0.04921 0.03197,0.136332 0.03197,0.1936 0,0.05726 -0.02237,0.150178 -0.04973,0.206464 -0.02735,0.05629 -0.09301,0.126155 -0.145901,0.155263 -0.0529,0.02911 -0.148754,0.05292 -0.213023,0.05292 -0.08699,0 -0.147672,-0.03005 -0.237423,-0.117582 z m 0.467331,-0.0794 c 0.05676,-0.06518 0.08039,-0.132306 0.08039,-0.228356 0,-0.09876 -0.02257,-0.160054 -0.08234,-0.223663 -0.06657,-0.07085 -0.108736,-0.08557 -0.220223,-0.07691 -0.115762,0.009 -0.150275,0.0303 -0.215095,0.132816 -0.05599,0.08854 -0.07191,0.150414 -0.05794,0.225093 0.0106,0.05664 0.05113,0.139065 0.09005,0.18316 0.05021,0.05687 0.107677,0.08018 0.197766,0.08018 0.09521,0 0.147105,-0.0231 0.207383,-0.09231 z m 1.29341,-0.221675 c 0,-0.230261 0.01107,-0.418414 0.02459,-0.41812 0.01352,2.94e-4 0.04022,0.01207 0.05933,0.02617 0.0191,0.01409 0.105461,0.147303 0.191902,0.296012 0.08644,0.148709 0.169856,0.27038 0.185368,0.27038 0.01551,0 0.02327,-0.09027 0.01725,-0.200605 -0.006,-0.110332 -0.0036,-0.243778 0.0053,-0.296546 0.0089,-0.05277 0.02914,-0.09594 0.04493,-0.09594 0.01578,0 0.02869,0.188394 0.02869,0.418655 0,0.33874 -0.0089,0.418652 -0.04663,0.418652 -0.02565,0 -0.123894,-0.134064 -0.21832,-0.297921 -0.09443,-0.163857 -0.184086,-0.306079 -0.199246,-0.316049 -0.01516,-0.01 -0.02756,0.124094 -0.02756,0.297922 0,0.18744 -0.01334,0.316048 -0.03278,0.316048 -0.02004,0 -0.03278,-0.16281 -0.03278,-0.418652 z m 1.629539,0.392487 c -0.0074,-0.01439 0.04825,-0.198861 0.123774,-0.409931 0.103624,-0.28961 0.151605,-0.383766 0.195564,-0.383766 0.04373,0 0.09336,0.09557 0.199138,0.383533 0.07749,0.210943 0.133988,0.395412 0.125555,0.409932 -0.0084,0.01452 -0.02762,0.0264 -0.04262,0.0264 -0.01501,0 -0.04943,-0.05887 -0.07648,-0.13083 -0.04859,-0.129255 -0.05113,-0.130688 -0.211078,-0.11914 -0.150752,0.01088 -0.16468,0.01989 -0.202378,0.130829 -0.02226,0.06552 -0.05341,0.119141 -0.06921,0.119141 -0.0158,0 -0.03482,-0.01177 -0.04226,-0.02617 z m 0.417596,-0.40121 c -0.01248,-0.04317 -0.0418,-0.117746 -0.06515,-0.165716 -0.04247,-0.08722 -0.04247,-0.08722 -0.0735,0 -0.01707,0.04797 -0.04138,0.122542 -0.05401,0.165716 -0.02093,0.07149 -0.01234,0.0785 0.09618,0.0785 0.108442,0 0.117121,-0.007 0.09648,-0.0785 z m 1.296853,0.0087 c 0,-0.348879 0.0082,-0.418655 0.04917,-0.418655 0.04059,0 0.04917,0.06396 0.04917,0.366323 0,0.366321 0,0.366321 0.131137,0.366321 0.09471,0 0.131137,0.01454 0.131137,0.05233 0,0.04018 -0.04189,0.05234 -0.180314,0.05234 -0.180312,0 -0.180312,0 -0.180312,-0.418653 z m 1.57364,0.05233 c 0,-0.0096 0.0074,-0.01744 0.0164,-0.01744 0.009,0 0.0164,0.0078 0.0164,0.01744 0,0.0096 -0.0074,0.01744 -0.0164,0.01744 -0.009,0 -0.0164,-0.0078 -0.0164,-0.01744 z m -17.14613,-0.767557 c 0,-0.0096 0.0074,-0.01744 0.01639,-0.01744 0.009,0 0.01639,0.0078 0.01639,0.01744 0,0.0096 -0.0074,0.01744 -0.01639,0.01744 -0.009,0 -0.01639,-0.0078 -0.01639,-0.01744 z M 17.462439,28.13244 c -0.09121,-0.01465 -0.09121,-0.01465 -0.08196,-0.403596 0.0092,-0.388954 0.0092,-0.388954 0.17317,-0.372618 0.09016,0.009 0.304073,0.01434 0.47537,0.0119 0.171298,-0.0023 0.407345,-0.03017 0.524547,-0.06162 0.117205,-0.03146 0.352663,-0.128504 0.523245,-0.215664 0.170581,-0.08716 0.407033,-0.242821 0.525451,-0.345919 0.118417,-0.103097 0.26006,-0.247398 0.31476,-0.320669 0.0547,-0.07327 0.14565,-0.205382 0.20211,-0.293581 0.05646,-0.0882 0.112478,-0.202018 0.124487,-0.252935 0.02183,-0.09258 0.02183,-0.09258 -0.494406,-0.09258 -0.516238,0 -0.516238,0 -0.652999,0.130829 -0.07522,0.07195 -0.175887,0.165529 -0.223708,0.207939 -0.04782,0.04241 -0.142835,0.107364 -0.21114,0.144343 -0.0683,0.03697 -0.225327,0.1004 -0.348939,0.140939 -0.12361,0.04054 -0.293856,0.07371 -0.378325,0.07371 -0.08447,0 -0.241508,-0.02403 -0.348977,-0.05339 -0.107469,-0.02937 -0.271997,-0.09287 -0.365619,-0.14113 -0.09362,-0.04825 -0.243319,-0.157675 -0.332658,-0.243153 -0.08934,-0.08548 -0.171335,-0.155415 -0.182209,-0.155415 -0.01088,0 -0.01977,0.470985 -0.01977,1.046633 0,1.046634 0,1.046634 -0.311451,1.046634 -0.311449,0 -0.311449,0 -0.313438,-0.898361 -0.0012,-0.494098 -8.12e-4,-1.620538 6.62e-4,-2.503199 0.0026,-1.604837 0.0026,-1.604837 0.104991,-1.704709 0.08813,-0.08603 0.12098,-0.09721 0.236947,-0.08066 0.08959,0.01279 0.159326,0.04977 0.208447,0.110539 0.04566,0.0565 0.07382,0.137146 0.07382,0.211485 0,0.06609 0.0084,0.120162 0.01871,0.120162 0.01029,0 0.08774,-0.06173 0.172118,-0.137182 0.08438,-0.07545 0.23665,-0.18362 0.338389,-0.240376 0.101738,-0.05676 0.289636,-0.123096 0.41755,-0.147423 0.181251,-0.03447 0.292356,-0.03539 0.503489,-0.0042 0.197292,0.02919 0.336455,0.07571 0.512072,0.171219 0.132636,0.07213 0.330384,0.217078 0.439441,0.322101 0.198286,0.190952 0.198286,0.190952 0.701344,0.191883 0.276683,5.12e-4 0.50308,-0.01146 0.503105,-0.02663 2.6e-5,-0.01515 -0.02808,-0.08621 -0.06245,-0.157894 -0.03437,-0.07169 -0.130499,-0.226624 -0.213628,-0.344306 -0.08313,-0.117681 -0.256757,-0.309276 -0.385842,-0.425765 -0.129084,-0.116491 -0.34645,-0.273252 -0.483036,-0.34836 -0.136586,-0.07511 -0.358984,-0.170742 -0.494218,-0.212519 -0.153241,-0.04734 -0.384116,-0.0834 -0.612773,-0.0957 -0.30612,-0.01647 -0.418048,-0.0072 -0.675739,0.0562 -0.169867,0.04178 -0.415144,0.130158 -0.545061,0.196414 -0.129918,0.06626 -0.321992,0.190706 -0.426832,0.276556 -0.104842,0.08585 -0.281566,0.26171 -0.392723,0.390801 -0.111157,0.129092 -0.255224,0.32777 -0.32015,0.441508 -0.06492,0.113738 -0.160401,0.326549 -0.212166,0.472916 -0.05532,0.156417 -0.109971,0.407152 -0.132572,0.608232 -0.02964,0.263663 -0.02943,0.419659 8.87e-4,0.680311 0.02164,0.186011 0.0392,0.703215 0.03902,1.149342 -1.74e-4,0.446127 -0.01293,0.811141 -0.02835,0.811141 -0.01542,0 -0.08714,-0.09027 -0.159374,-0.200605 -0.07221,-0.11031 -0.185047,-0.309018 -0.250717,-0.441551 -0.06567,-0.132533 -0.163244,-0.38662 -0.216829,-0.564636 -0.06131,-0.203668 -0.109961,-0.465092 -0.131232,-0.705121 -0.02277,-0.256992 -0.02315,-0.490793 -0.0012,-0.716559 0.01796,-0.184306 0.04721,-0.402245 0.06501,-0.484308 0.0178,-0.08206 0.07531,-0.270419 0.127804,-0.41857 0.0525,-0.148151 0.143315,-0.360095 0.20182,-0.470985 0.05851,-0.110892 0.198413,-0.327466 0.310904,-0.481277 0.112492,-0.153812 0.276503,-0.348673 0.364469,-0.433026 0.08797,-0.08435 0.280446,-0.237326 0.427735,-0.339944 0.147288,-0.102618 0.375212,-0.235219 0.506497,-0.294671 0.131286,-0.05946 0.379599,-0.147299 0.551809,-0.195215 0.256339,-0.07133 0.393349,-0.08748 0.755694,-0.0891 0.370212,-0.0017 0.498877,0.01281 0.78682,0.08849 0.189329,0.04976 0.459383,0.146502 0.60012,0.214984 0.140738,0.06847 0.369625,0.202155 0.508641,0.297051 0.139015,0.0949 0.356454,0.287216 0.483196,0.427379 0.126743,0.140161 0.28254,0.333337 0.346214,0.429279 0.06368,0.09594 0.158686,0.252936 0.211136,0.348878 0.05246,0.09594 0.144877,0.307885 0.205392,0.470985 0.06052,0.163101 0.117769,0.382894 0.127231,0.48843 0.01419,0.158232 0.0056,0.207178 -0.04919,0.279102 -0.0664,0.08722 -0.0664,0.08722 -0.993297,0.09753 -0.620853,0.0069 -0.954686,-0.0023 -1.011052,-0.028 -0.04629,-0.02105 -0.143896,-0.13556 -0.216917,-0.254439 -0.08269,-0.134626 -0.199832,-0.266004 -0.310598,-0.348354 -0.09781,-0.07272 -0.258625,-0.157206 -0.357369,-0.187753 -0.127226,-0.03936 -0.250197,-0.04986 -0.422059,-0.03602 -0.174358,0.01403 -0.293875,0.04717 -0.425234,0.117892 -0.100491,0.05411 -0.245589,0.165286 -0.322439,0.247066 -0.07685,0.08178 -0.180549,0.238776 -0.230443,0.348879 -0.0653,0.144087 -0.09442,0.269967 -0.103945,0.449201 -0.0089,0.167848 0.0048,0.315014 0.04208,0.451491 0.03042,0.111361 0.09937,0.270626 0.153229,0.353923 0.05386,0.0833 0.170344,0.212373 0.258864,0.286834 0.08852,0.07446 0.231325,0.159534 0.317342,0.189047 0.08602,0.02952 0.209029,0.06349 0.273359,0.07551 0.06433,0.01202 0.211055,0.0037 0.326059,-0.01851 0.115004,-0.02219 0.26669,-0.07162 0.33708,-0.109831 0.07039,-0.03821 0.193946,-0.134185 0.274568,-0.213268 0.08062,-0.07908 0.184026,-0.211773 0.229785,-0.294865 0.04576,-0.08309 0.110134,-0.166418 0.143057,-0.185167 0.03502,-0.01995 0.453034,-0.03409 1.007041,-0.03409 0.940402,0 0.947664,5.62e-4 1.014697,0.0785 0.03713,0.04317 0.0767,0.110855 0.08792,0.150403 0.01122,0.03955 -0.008,0.188693 -0.04268,0.331434 -0.0347,0.142741 -0.136595,0.416523 -0.226432,0.608406 -0.08984,0.191883 -0.212771,0.421256 -0.273188,0.509718 -0.06042,0.08846 -0.154747,0.214058 -0.209622,0.279102 -0.05487,0.06505 -0.192475,0.208826 -0.305779,0.319514 -0.113304,0.110689 -0.28552,0.25538 -0.382704,0.321536 -0.09718,0.06615 -0.25464,0.162324 -0.349903,0.213707 -0.09526,0.05138 -0.27648,0.130915 -0.402698,0.17674 -0.12622,0.04582 -0.353133,0.106359 -0.504254,0.134523 -0.151119,0.02817 -0.424048,0.04885 -0.606507,0.04598 -0.182459,-0.0029 -0.372788,-0.01182 -0.422952,-0.01986 z m -0.90871,-2.591487 c 0,-0.01919 -0.01475,-0.03489 -0.03278,-0.03489 -0.01803,0 -0.03278,0.0157 -0.03278,0.03489 0,0.01919 0.01475,0.03489 0.03278,0.03489 0.01803,0 0.03278,-0.0157 0.03278,-0.03489 z m 15.367079,2.404185 c -0.0679,-0.01702 -0.179208,-0.06122 -0.247356,-0.09822 -0.06815,-0.03699 -0.187256,-0.140406 -0.264685,-0.229796 -0.07743,-0.08939 -0.170913,-0.235019 -0.207742,-0.323618 -0.04881,-0.117426 -0.06696,-0.235036 -0.06696,-0.433908 0,-0.235945 0.01406,-0.303217 0.104043,-0.497721 0.06018,-0.130095 0.160197,-0.276052 0.237253,-0.346241 0.07326,-0.06673 0.18698,-0.149256 0.2527,-0.183376 0.07153,-0.03714 0.220584,-0.06748 0.371353,-0.07559 0.175123,-0.0094 0.301028,0.0038 0.41323,0.04348 0.0984,0.03478 0.221885,0.118742 0.316447,0.215163 0.08529,0.08697 0.192186,0.244381 0.237541,0.349805 0.04535,0.105422 0.09019,0.282353 0.09963,0.393179 0.01028,0.120709 0.0021,0.231533 -0.0205,0.276404 -0.03659,0.07278 -0.05871,0.07517 -0.780714,0.08428 -0.743045,0.0094 -0.743045,0.0094 -0.633601,0.141986 0.06019,0.07294 0.150782,0.155358 0.201303,0.183161 0.05053,0.0278 0.1447,0.05055 0.209284,0.05055 0.06458,0 0.164899,-0.02152 0.222922,-0.04784 0.05802,-0.02632 0.141261,-0.08911 0.184974,-0.139551 0.0709,-0.08181 0.103647,-0.09172 0.303254,-0.09172 0.193824,0 0.223775,0.0084 0.223775,0.06295 0,0.03462 -0.04166,0.132849 -0.09258,0.218288 -0.05092,0.08544 -0.172627,0.21387 -0.270469,0.285406 -0.110597,0.08086 -0.244699,0.143459 -0.354486,0.165477 -0.09712,0.01948 -0.207772,0.03384 -0.245881,0.03192 -0.03811,-0.0019 -0.124843,-0.01743 -0.19274,-0.03445 z m 0.729834,-1.331386 c -6.8e-5,-0.02399 -0.02988,-0.09555 -0.06624,-0.159023 -0.03817,-0.06663 -0.124722,-0.143722 -0.204777,-0.182395 -0.07626,-0.03685 -0.1761,-0.06733 -0.221866,-0.06775 -0.04576,-4.21e-4 -0.148916,0.03456 -0.229225,0.07773 -0.08031,0.04317 -0.179327,0.131843 -0.220044,0.197042 -0.04071,0.06519 -0.07403,0.131923 -0.07403,0.148273 0,0.01635 0.228669,0.02973 0.508155,0.02973 0.384733,0 0.508125,-0.01059 0.508032,-0.0436 z m 2.336784,1.334624 c -0.0762,-0.01712 -0.204674,-0.07237 -0.2855,-0.122776 -0.08083,-0.05041 -0.191736,-0.145923 -0.246469,-0.21226 -0.05473,-0.06634 -0.130262,-0.184753 -0.167845,-0.263149 -0.03759,-0.0784 -0.08053,-0.223181 -0.09544,-0.321742 -0.01551,-0.102538 -0.01384,-0.256777 0.0039,-0.360526 0.01706,-0.09973 0.0679,-0.251556 0.112984,-0.337399 0.04509,-0.08584 0.13971,-0.211586 0.210277,-0.279431 0.07057,-0.06784 0.190602,-0.157172 0.266742,-0.198509 0.07614,-0.04133 0.221624,-0.08318 0.323299,-0.09299 0.101675,-0.0098 0.264866,4.2e-4 0.362647,0.02274 0.09778,0.02232 0.244331,0.08956 0.325666,0.149437 0.08133,0.05987 0.195907,0.170931 0.254606,0.246792 0.0587,0.07586 0.130554,0.225156 0.159678,0.331766 0.03597,0.131694 0.04811,0.274185 0.03784,0.444474 -0.0095,0.15778 -0.04155,0.308742 -0.08645,0.407463 -0.03924,0.08625 -0.126419,0.216282 -0.193739,0.288955 -0.06732,0.07267 -0.19743,0.169198 -0.289136,0.214501 -0.09171,0.04531 -0.253986,0.08944 -0.360626,0.09808 -0.106638,0.0086 -0.256234,0.0017 -0.332433,-0.01541 z m 0.499078,-0.533833 c 0.07787,-0.04694 0.161768,-0.138249 0.20677,-0.225063 0.04915,-0.09483 0.07616,-0.205904 0.07697,-0.31656 8.13e-4,-0.105876 -0.02451,-0.224176 -0.06669,-0.312186 -0.03737,-0.07794 -0.114414,-0.176928 -0.171219,-0.219973 -0.05837,-0.04424 -0.170736,-0.08516 -0.258402,-0.09412 -0.106038,-0.01084 -0.193469,0.0035 -0.276327,0.04534 -0.06666,0.03366 -0.156008,0.110023 -0.198541,0.169684 -0.04254,0.05966 -0.09056,0.163333 -0.106733,0.230379 -0.01617,0.06704 -0.01828,0.19679 -0.0047,0.288318 0.0136,0.09153 0.05627,0.213563 0.09483,0.271191 0.03856,0.05763 0.124245,0.135209 0.190411,0.172403 0.06616,0.0372 0.179313,0.06806 0.251438,0.06859 0.07725,5.7e-4 0.184991,-0.03149 0.262181,-0.07801 z M 24.41284,27.911514 c -0.08614,-0.01512 -0.220582,-0.06737 -0.298757,-0.116128 -0.07817,-0.04876 -0.190547,-0.147316 -0.249716,-0.219031 -0.05917,-0.07172 -0.135654,-0.197928 -0.169966,-0.280471 -0.03431,-0.08254 -0.07075,-0.225269 -0.08098,-0.317166 -0.01022,-0.0919 -3.49e-4,-0.260613 0.02195,-0.374925 0.0223,-0.114311 0.0834,-0.274127 0.135788,-0.35515 0.05238,-0.08102 0.142785,-0.185719 0.200892,-0.232663 0.0581,-0.04694 0.172038,-0.114137 0.253178,-0.149319 0.10013,-0.04341 0.226528,-0.06328 0.39341,-0.06184 0.198357,0.0017 0.277566,0.01967 0.409803,0.09283 0.09016,0.04988 0.211112,0.143122 0.26879,0.207198 0.05767,0.06408 0.13597,0.191431 0.173982,0.283015 0.03926,0.09459 0.07185,0.252816 0.07545,0.366322 0.0064,0.199806 0.0064,0.199806 -0.82147,0.209128 -0.663685,0.0075 -0.827801,0.01854 -0.827801,0.05585 0,0.02559 0.0167,0.09989 0.03713,0.165118 0.02042,0.06522 0.08927,0.176879 0.15299,0.248121 0.06374,0.07126 0.182397,0.153656 0.263769,0.183161 0.08135,0.02949 0.184138,0.05363 0.22842,0.05363 0.04428,0 0.141236,-0.01901 0.215453,-0.04223 0.08792,-0.02751 0.19442,-0.106534 0.305626,-0.226771 0.143542,-0.155197 0.189512,-0.184544 0.289071,-0.184544 0.107553,0 0.116335,0.0072 0.09598,0.0785 -0.01232,0.04317 -0.06089,0.133446 -0.107931,0.200605 -0.04704,0.06715 -0.115403,0.150536 -0.151921,0.185282 -0.03651,0.03474 -0.140159,0.09975 -0.230315,0.144447 -0.09016,0.0447 -0.222933,0.08875 -0.295058,0.0979 -0.07213,0.0091 -0.201616,0.0043 -0.287759,-0.01086 z m 0.854121,-1.259318 c 0.0049,-0.02596 -0.03929,-0.132296 -0.09835,-0.236309 -0.07208,-0.12695 -0.150489,-0.212943 -0.23852,-0.261603 -0.09036,-0.04995 -0.192308,-0.07242 -0.327843,-0.07228 -0.108187,1.15e-4 -0.234869,0.01154 -0.281515,0.02541 -0.04664,0.01385 -0.13941,0.07999 -0.206144,0.146967 -0.06673,0.06697 -0.142903,0.176712 -0.169267,0.243858 -0.02636,0.06714 -0.04793,0.137625 -0.04793,0.156622 0,0.019 0.114334,0.03912 0.254077,0.04474 0.139743,0.0056 0.445865,0.0079 0.680272,0.005 0.32895,-0.004 0.428255,-0.01596 0.435225,-0.05238 z m 3.185357,1.216547 c -0.100311,-0.04499 -0.217144,-0.107712 -0.25963,-0.139379 -0.04249,-0.03167 -0.141492,-0.122736 -0.220015,-0.202375 -0.07852,-0.07964 -0.180694,-0.213665 -0.227047,-0.297835 -0.04635,-0.08417 -0.106653,-0.243314 -0.134002,-0.353651 -0.03366,-0.135801 -0.04425,-0.28796 -0.03277,-0.470969 0.0126,-0.200868 0.04193,-0.326402 0.114137,-0.488428 0.05345,-0.119941 0.161808,-0.290672 0.240786,-0.379402 0.07898,-0.08873 0.204728,-0.20353 0.279441,-0.255114 0.07471,-0.05158 0.214866,-0.116171 0.311449,-0.143528 0.09658,-0.02735 0.272513,-0.04992 0.390951,-0.05016 0.118438,-2.29e-4 0.295473,0.02452 0.393411,0.055 0.09794,0.03048 0.247364,0.102229 0.332061,0.159451 0.0847,0.05723 0.205574,0.164795 0.268615,0.239052 0.06305,0.07426 0.137584,0.182267 0.165651,0.240025 0.02807,0.05776 0.05103,0.113645 0.05103,0.124193 0,0.01055 -0.12607,0.01918 -0.280156,0.01918 -0.255493,0 -0.287406,-0.0077 -0.362527,-0.08766 -0.04531,-0.04821 -0.15479,-0.126709 -0.243302,-0.174439 -0.111668,-0.06022 -0.214487,-0.08678 -0.335895,-0.08678 -0.122322,0 -0.225993,0.02706 -0.344555,0.08993 -0.09327,0.04946 -0.207521,0.137906 -0.253885,0.196541 -0.04637,0.05863 -0.116011,0.171236 -0.154772,0.250224 -0.05385,0.109736 -0.07048,0.205338 -0.07048,0.405273 0,0.201773 0.01651,0.295318 0.07213,0.408727 0.03967,0.08089 0.133472,0.209792 0.208444,0.286453 0.07497,0.07666 0.202958,0.163551 0.284416,0.193087 0.08146,0.02954 0.208178,0.05356 0.281598,0.05336 0.07342,-1.86e-4 0.207258,-0.03795 0.297414,-0.08394 0.09016,-0.04598 0.206786,-0.124326 0.259177,-0.174098 0.08523,-0.08097 0.122114,-0.0905 0.350495,-0.0905 0.140382,0 0.263023,0.01341 0.272537,0.02979 0.0095,0.01638 -0.02419,0.09941 -0.0749,0.184498 -0.05071,0.08509 -0.156656,0.213425 -0.235435,0.285183 -0.07878,0.07176 -0.224925,0.172341 -0.324769,0.223518 -0.151579,0.07769 -0.235634,0.09499 -0.509377,0.104811 -0.285469,0.01025 -0.351415,0.0012 -0.510226,-0.07004 z m -6.472806,-0.03873 c -0.09016,-0.04551 -0.218505,-0.143476 -0.28522,-0.217725 -0.06671,-0.07425 -0.158919,-0.22572 -0.204901,-0.336599 -0.05848,-0.141007 -0.0836,-0.262899 -0.0836,-0.405545 0,-0.112171 0.02204,-0.270399 0.04896,-0.351617 0.02693,-0.08122 0.101598,-0.223981 0.165932,-0.317245 0.0853,-0.123661 0.173635,-0.199256 0.326255,-0.279212 0.172364,-0.0903 0.246231,-0.109051 0.418728,-0.106298 0.115192,0.0018 0.273585,0.02742 0.351981,0.05686 0.0784,0.02943 0.191054,0.0929 0.250351,0.141027 0.107814,0.08751 0.107814,0.08751 0.116997,-0.358283 0.0092,-0.445795 0.0092,-0.445795 0.123926,-0.445795 0.114744,0 0.114744,0 0.131708,0.244214 0.0093,0.134319 0.01388,0.721352 0.0101,1.304521 -0.0039,0.601474 -0.02015,1.074439 -0.03756,1.09297 -0.01688,0.01796 -0.07306,0.02751 -0.124846,0.02121 -0.07913,-0.0096 -0.09677,-0.03038 -0.110542,-0.130147 -0.01639,-0.118697 -0.01639,-0.118697 -0.119952,-0.02574 -0.05697,0.05113 -0.165772,0.116315 -0.241808,0.144863 -0.07604,0.02855 -0.235973,0.05175 -0.355419,0.05156 -0.160045,-2.52e-4 -0.260289,-0.0221 -0.381091,-0.08305 z m 0.571086,-0.194903 c 0.06142,-0.01875 0.166271,-0.07435 0.233,-0.123556 0.06673,-0.04922 0.16205,-0.169101 0.211827,-0.266425 0.08151,-0.159379 0.08897,-0.202388 0.07506,-0.433075 -0.01266,-0.209906 -0.03154,-0.278587 -0.104667,-0.380606 -0.04907,-0.06846 -0.127726,-0.162475 -0.174787,-0.208912 -0.04706,-0.04644 -0.156699,-0.102591 -0.243639,-0.124786 -0.120294,-0.0307 -0.19656,-0.03053 -0.319103,8.08e-4 -0.09445,0.02411 -0.214853,0.09014 -0.291199,0.159678 -0.07159,0.06521 -0.155485,0.18565 -0.18643,0.267638 -0.03291,0.08721 -0.05519,0.235562 -0.05369,0.357485 0.0018,0.145493 0.02558,0.255992 0.07878,0.366003 0.04246,0.0878 0.136257,0.202501 0.211804,0.259004 0.07458,0.05578 0.191796,0.11299 0.260482,0.127135 0.06869,0.01414 0.139735,0.02753 0.157885,0.02974 0.01816,0.0022 0.08326,-0.01132 0.144676,-0.03007 z m -0.292421,-1.16955 c 0,-0.0096 0.0074,-0.01744 0.01639,-0.01744 0.009,0 0.0164,0.0078 0.0164,0.01744 0,0.0096 -0.0074,0.01744 -0.0164,0.01744 -0.009,0 -0.01639,-0.0078 -0.01639,-0.01744 z m 8.097695,0.401211 c 0,-1.049691 0,-1.049691 0.237685,-1.039441 0.237686,0.01025 0.237686,0.01025 0.237686,1.039441 0,1.029188 0,1.029188 -0.237686,1.039439 -0.237685,0.01025 -0.237685,0.01025 -0.237685,-1.039439 z m 3.089533,-0.340156 c 0.0086,-1.38679 0.0086,-1.38679 0.238062,-1.38679 0.229489,0 0.229489,0 0.238061,1.38679 0.0086,1.386789 0.0086,1.386789 -0.238061,1.386789 -0.246635,0 -0.246635,0 -0.238062,-1.386789 z m -7.597996,1.310381 c -0.0091,-0.02529 -0.01271,-0.626795 -0.008,-1.336686 0.0086,-1.290709 0.0086,-1.290709 0.123352,-1.290709 0.114746,0 0.114746,0 0.114746,1.325736 0,1.325735 0,1.325735 -0.106775,1.336685 -0.06613,0.0068 -0.113084,-0.0066 -0.123352,-0.03503 z m -8.67078,-1.127237 c 0,-0.0096 0.0074,-0.01744 0.01639,-0.01744 0.009,0 0.01639,0.0078 0.01639,0.01744 0,0.0096 -0.0074,0.01744 -0.01639,0.01744 -0.009,0 -0.01639,-0.0078 -0.01639,-0.01744 z m -5.343823,-0.732645 c 0,-0.0096 0.0074,-0.01744 0.01639,-0.01744 0.009,0 0.01639,0.0078 0.01639,0.01744 0,0.0096 -0.0074,0.01744 -0.01639,0.01744 -0.009,0 -0.01639,-0.0078 -0.01639,-0.01744 z m 5.876565,-0.21712 c -0.09269,-0.01224 -0.106548,-0.02724 -0.106548,-0.115296 0,-0.06552 0.02313,-0.114398 0.06557,-0.138568 0.03607,-0.02053 0.06557,-0.05518 0.06557,-0.07698 0,-0.0218 0.02195,-0.06545 0.04879,-0.097 0.02683,-0.03156 0.05772,-0.104938 0.06865,-0.163081 0.01733,-0.09222 0.0059,-0.115202 -0.08977,-0.180067 -0.0603,-0.0409 -0.133447,-0.09292 -0.162551,-0.1156 -0.02911,-0.02269 -0.07705,-0.03139 -0.106548,-0.01934 -0.03515,0.01435 -0.05363,0.06291 -0.05363,0.140831 0,0.06542 0.02214,0.138474 0.04917,0.162362 0.03318,0.02931 0.04902,0.107278 0.04867,0.239764 -2.77e-4,0.107983 -0.01399,0.219024 -0.03048,0.246756 -0.02564,0.04313 -0.04792,0.0406 -0.153838,-0.01744 -0.06812,-0.03733 -0.185269,-0.133936 -0.260325,-0.214686 -0.07505,-0.08075 -0.170045,-0.222045 -0.21109,-0.31399 -0.04727,-0.105914 -0.08039,-0.258831 -0.09036,-0.417308 -0.0087,-0.137574 -0.0056,-0.307352 0.0067,-0.377283 0.01331,-0.07547 0.0383,-0.121513 0.0615,-0.113285 0.02149,0.0076 0.06589,0.09106 0.09866,0.185402 0.03276,0.09434 0.09877,0.215314 0.146689,0.26882 0.04791,0.05351 0.128071,0.119027 0.178127,0.145599 0.05378,0.02855 0.09101,0.03379 0.09101,0.01284 0,-0.01951 -0.02951,-0.04369 -0.06557,-0.05373 -0.03629,-0.0101 -0.06557,-0.04759 -0.06557,-0.08395 0,-0.04683 0.02355,-0.06571 0.08196,-0.06571 0.04508,0 0.08196,-0.0175 0.08196,-0.03891 0,-0.0214 0.05326,-0.09081 0.118335,-0.154251 0.105014,-0.102361 0.114913,-0.126278 0.08792,-0.212447 -0.01876,-0.05988 -0.07004,-0.114306 -0.13381,-0.141996 -0.103396,-0.04489 -0.103396,-0.04489 -0.07061,0.04686 0.01803,0.05047 0.02622,0.09874 0.01821,0.107273 -0.008,0.0085 -0.04531,-0.01719 -0.08288,-0.05717 -0.03757,-0.03997 -0.0683,-0.09323 -0.0683,-0.118347 0,-0.02511 0.01951,-0.07406 0.04335,-0.108761 0.04078,-0.05935 0.04954,-0.0597 0.147529,-0.0058 0.05729,0.03153 0.104172,0.04396 0.104172,0.02762 0,-0.01634 -0.03607,-0.06576 -0.08014,-0.109826 -0.05532,-0.0553 -0.103557,-0.07388 -0.155726,-0.05998 -0.05825,0.01553 -0.08426,5.18e-4 -0.113464,-0.06548 -0.02325,-0.05255 -0.02586,-0.09354 -0.0068,-0.106103 0.01712,-0.01126 0.05111,-0.0028 0.07555,0.01876 0.03394,0.02997 0.07092,0.02011 0.156644,-0.04181 0.06172,-0.04457 0.106424,-0.09955 0.09934,-0.122163 -0.0071,-0.02263 0.02873,-0.05348 0.0796,-0.06858 0.05086,-0.01509 0.190126,-0.02533 0.309464,-0.02275 0.158145,0.0034 0.27048,0.03026 0.414296,0.09894 0.108526,0.05183 0.24676,0.148518 0.30719,0.214865 0.09124,0.100175 0.101596,0.1262 0.06107,0.153465 -0.02684,0.01806 -0.06032,0.03307 -0.07441,0.03337 -0.01409,2.93e-4 -0.0341,-0.02302 -0.04449,-0.0518 -0.01037,-0.02878 -0.0431,-0.0519 -0.07274,-0.05136 -0.02963,5.33e-4 -0.09507,0.0457 -0.145435,0.100352 -0.07281,0.07902 -0.08155,0.103478 -0.04266,0.119359 0.03036,0.0124 0.0566,-0.0058 0.06919,-0.04802 0.01115,-0.0374 0.03305,-0.068 0.04864,-0.068 0.0156,0 0.03796,0.03215 0.04967,0.07145 0.01172,0.0393 0.0035,0.09425 -0.0182,0.122108 -0.02172,0.02786 -0.07283,0.05066 -0.113561,0.05066 -0.0461,0 -0.107084,0.04608 -0.161576,0.122107 -0.06137,0.08561 -0.07352,0.122108 -0.04069,0.122108 0.02575,0 0.06352,-0.0214 0.08392,-0.04755 0.0204,-0.02615 0.06277,-0.04537 0.09417,-0.04272 0.0314,0.0026 0.106228,0.03297 0.166291,0.06736 0.07193,0.04119 0.10283,0.0802 0.09052,0.114324 -0.01027,0.02849 0.0062,0.09415 0.0366,0.145915 0.0304,0.05176 0.05939,0.100276 0.06441,0.107807 0.005,0.0075 0.03178,-0.0063 0.05946,-0.03075 0.04495,-0.03969 0.04416,-0.04925 -0.0073,-0.08934 -0.03173,-0.02469 -0.049,-0.05414 -0.03838,-0.06543 0.01062,-0.01129 0.06707,-0.01038 0.125454,0.0021 0.07098,0.0151 0.116166,0.05061 0.136372,0.107177 0.01662,0.04653 0.03021,0.118886 0.0302,0.16081 -1.5e-5,0.04192 -0.04207,0.170423 -0.09344,0.285553 -0.05138,0.11513 -0.152878,0.272333 -0.225559,0.349341 -0.07268,0.07701 -0.198185,0.17511 -0.278896,0.218007 -0.08071,0.0429 -0.224635,0.09371 -0.319829,0.112921 -0.09519,0.01921 -0.196885,0.03242 -0.225978,0.02935 -0.02909,-0.003 -0.100844,-0.01192 -0.159446,-0.01965 z m 0.848578,-0.517928 c 0.03102,-0.05624 0.05747,-0.14812 0.05879,-0.204174 0.0014,-0.05605 0.02573,-0.129349 0.05424,-0.162879 0.04753,-0.05588 0.04622,-0.06695 -0.01556,-0.132688 -0.03707,-0.03945 -0.07675,-0.111375 -0.08818,-0.159834 -0.01459,-0.06183 -0.04296,-0.08811 -0.09517,-0.08811 -0.04092,0 -0.0915,-0.02193 -0.112396,-0.04873 -0.0209,-0.0268 -0.06601,-0.04093 -0.100244,-0.03141 -0.03423,0.0095 -0.08636,0.04569 -0.115845,0.08036 -0.03326,0.03911 -0.04962,0.10731 -0.04311,0.179684 0.0092,0.102085 0.02322,0.117966 0.112379,0.127209 0.08723,0.009 0.107481,0.03046 0.14085,0.148991 0.02144,0.07614 0.03109,0.152002 0.02145,0.168591 -0.0096,0.01658 -0.0013,0.07978 0.0186,0.140419 0.01986,0.06065 0.05225,0.104536 0.07196,0.09754 0.01971,-0.007 0.06122,-0.05873 0.09223,-0.11497 z m 0.225105,-0.12382 c 0,-0.01918 -0.01475,-0.02519 -0.03278,-0.01333 -0.01803,0.01186 -0.03278,0.03727 -0.03278,0.05645 0,0.01918 0.01475,0.02518 0.03278,0.01333 0.01803,-0.01186 0.03278,-0.03726 0.03278,-0.05645 z m -0.557331,-1.028827 c 0,-0.0052 -0.01373,-0.0186 -0.03052,-0.02965 -0.01678,-0.01105 -0.03827,-0.0067 -0.04773,0.0096 -0.0095,0.01631 0.0043,0.02965 0.03052,0.02965 0.02625,0 0.04773,-0.0043 0.04773,-0.0096 z M 17.831814,23.89257 c 0.05538,-0.06478 0.09734,-0.153264 0.09789,-0.206419 5.28e-4,-0.05117 0.0194,-0.100953 0.04195,-0.110631 0.02556,-0.01097 0.02041,-0.01864 -0.01367,-0.02036 -0.03005,-0.0015 -0.06016,-0.02039 -0.06691,-0.04194 -0.0081,-0.02594 -0.0579,-0.03099 -0.147237,-0.01492 -0.07423,0.01335 -0.162141,0.04766 -0.195359,0.07626 -0.04539,0.03908 -0.04975,0.05668 -0.01758,0.07081 0.02355,0.01035 0.07186,0.05198 0.107353,0.09252 0.03549,0.04054 0.05726,0.09389 0.04837,0.118549 -0.0089,0.02466 -0.0077,0.06839 0.0027,0.09717 0.01037,0.02878 0.02487,0.05234 0.03222,0.05234 0.0073,0 0.05697,-0.05102 0.110276,-0.113385 z m 12.530722,1.484292 c 0.0097,-0.237054 0.0097,-0.237054 0.239217,-0.237054 0.22949,0 0.22949,0 0.22949,0.226771 0,0.22677 0,0.22677 -0.239217,0.237053 -0.239217,0.01029 -0.239217,0.01029 -0.22949,-0.22677 z M 11.483108,24.575789 c 0.01202,-0.01279 0.03169,-0.01279 0.04371,0 0.01202,0.01279 0.0022,0.02325 -0.02186,0.02325 -0.02404,0 -0.03388,-0.01046 -0.02186,-0.02325 z m 14.528859,-0.43241 c -0.0541,-0.0169 -0.154105,-0.0798 -0.222245,-0.139779 -0.06814,-0.05998 -0.156579,-0.174261 -0.196529,-0.253956 -0.06775,-0.135159 -0.07338,-0.198355 -0.08371,-0.940182 -0.01107,-0.795284 -0.01107,-0.795284 0.229313,-0.784975 0.240386,0.01031 0.240386,0.01031 0.256778,0.714353 0.01501,0.644839 0.02217,0.712318 0.08509,0.802419 0.03778,0.05411 0.124596,0.118285 0.192913,0.142619 0.107635,0.03834 0.13991,0.03601 0.241837,-0.01744 0.06469,-0.03392 0.147537,-0.116636 0.184099,-0.183795 0.05915,-0.10866 0.06776,-0.196069 0.07815,-0.793698 0.01168,-0.67159 0.01168,-0.67159 0.237693,-0.67159 0.226013,0 0.226013,0 0.226013,1.046635 0,1.046633 0,1.046633 -0.213097,1.046633 -0.209152,0 -0.213098,-0.0017 -0.213098,-0.0933 0,-0.0933 0,-0.0933 -0.07376,-0.02152 -0.04057,0.03948 -0.120978,0.09716 -0.178684,0.128188 -0.06071,0.03265 -0.178118,0.05508 -0.278665,0.05326 -0.09556,-0.0017 -0.218004,-0.01697 -0.272098,-0.03387 z m 2.201858,-0.01491 c -0.0692,-0.02816 -0.185775,-0.09812 -0.259056,-0.155474 -0.07328,-0.05735 -0.181352,-0.176287 -0.240158,-0.264306 -0.05881,-0.08802 -0.124835,-0.239508 -0.146732,-0.336641 -0.0219,-0.09713 -0.03248,-0.273868 -0.02351,-0.392742 0.009,-0.118874 0.04607,-0.287743 0.08245,-0.375264 0.03639,-0.08752 0.120763,-0.223464 0.187517,-0.302094 0.06675,-0.07863 0.200359,-0.184089 0.296899,-0.234352 0.09985,-0.05199 0.258617,-0.09941 0.368246,-0.109984 0.127938,-0.01235 0.254037,3.73e-4 0.375136,0.03784 0.125087,0.0387 0.235679,0.107392 0.351887,0.218577 0.09321,0.08918 0.208302,0.24233 0.255766,0.340337 0.07123,0.147074 0.08665,0.226933 0.08834,0.457294 0.0021,0.279104 0.0021,0.279104 -0.743794,0.28848 -0.657441,0.0083 -0.745841,0.01598 -0.745841,0.06508 0,0.03064 0.05292,0.107269 0.117585,0.170307 0.06467,0.06304 0.175349,0.130217 0.245951,0.149288 0.0706,0.01906 0.17663,0.02309 0.235616,0.0089 0.05899,-0.01416 0.136575,-0.04244 0.172415,-0.06285 0.03584,-0.02042 0.0931,-0.06997 0.12725,-0.110121 0.05227,-0.06147 0.10017,-0.07301 0.302887,-0.07301 0.132441,0 0.240681,0.01177 0.240533,0.02617 -1.46e-4,0.01439 -0.04072,0.09921 -0.09016,0.188495 -0.04944,0.08928 -0.134479,0.201493 -0.188978,0.24936 -0.05451,0.04788 -0.16351,0.122762 -0.242243,0.166433 -0.10365,0.05749 -0.212007,0.08245 -0.392673,0.09043 -0.163429,0.0072 -0.292931,-0.0067 -0.375339,-0.04017 z m 0.846579,-1.317417 c -0.01172,-0.04317 -0.04638,-0.116153 -0.07703,-0.162178 -0.03066,-0.04603 -0.106655,-0.112747 -0.168903,-0.148273 -0.06335,-0.03615 -0.179837,-0.06459 -0.264567,-0.06459 -0.103176,0 -0.186616,0.02527 -0.262005,0.07933 -0.06084,0.04363 -0.143912,0.131906 -0.184607,0.196168 -0.04069,0.06426 -0.06599,0.130611 -0.05622,0.147443 0.0098,0.01683 0.246566,0.03061 0.526202,0.03061 0.508429,0 0.508429,0 0.487127,-0.0785 z m 3.557365,1.336749 c -0.04519,-0.01463 -0.126337,-0.05123 -0.180314,-0.08134 -0.05398,-0.03011 -0.151899,-0.114913 -0.217605,-0.188451 -0.06571,-0.07354 -0.154223,-0.204352 -0.196705,-0.290699 -0.06697,-0.136136 -0.07724,-0.206071 -0.07724,-0.526365 0,-0.363625 0.0019,-0.372581 0.119129,-0.575649 0.07453,-0.129053 0.183136,-0.2546 0.290095,-0.335348 0.105033,-0.0793 0.240764,-0.14449 0.351955,-0.169054 0.09954,-0.02199 0.243862,-0.02996 0.320705,-0.01769 0.07684,0.01226 0.2244,0.07656 0.327904,0.142889 0.103503,0.06632 0.193778,0.120591 0.200609,0.120591 0.0068,0 0.01242,-0.0471 0.01242,-0.104663 0,-0.104663 0,-0.104663 0.213096,-0.104663 0.213098,0 0.213098,0 0.213098,1.046635 0,1.046633 0,1.046633 -0.21102,1.046633 -0.210681,0 -0.211037,-1.71e-4 -0.221294,-0.10542 -0.01027,-0.10542 -0.01027,-0.10542 -0.138567,-0.01231 -0.07056,0.0512 -0.194619,0.114345 -0.27568,0.140307 -0.08106,0.02596 -0.215118,0.04585 -0.297901,0.04421 -0.08278,-0.0017 -0.187492,-0.01497 -0.232686,-0.0296 z m 0.659243,-0.534611 c 0.06127,-0.04333 0.144591,-0.148701 0.185161,-0.234163 0.04486,-0.09449 0.07376,-0.218699 0.07376,-0.316943 0,-0.101399 -0.02812,-0.218132 -0.07549,-0.31348 -0.0516,-0.103838 -0.120677,-0.177348 -0.218253,-0.232258 -0.07852,-0.04419 -0.192549,-0.08034 -0.253402,-0.08034 -0.06085,0 -0.158344,0.02121 -0.216649,0.04713 -0.0583,0.02593 -0.152996,0.104085 -0.210428,0.173692 -0.05743,0.06961 -0.114337,0.182823 -0.126461,0.251591 -0.01212,0.06876 -0.01481,0.193267 -0.006,0.276662 0.0088,0.0834 0.04958,0.201716 0.09054,0.262932 0.04096,0.06121 0.120378,0.141089 0.176483,0.177494 0.06802,0.04414 0.163195,0.06624 0.285666,0.06633 0.136058,9.7e-5 0.212534,-0.02029 0.295058,-0.07865 z m -9.674683,-0.87917 c 0,-1.379534 0,-1.379534 0.516351,-1.37934 0.283993,1.07e-4 0.570484,0.01619 0.636648,0.03575 0.06616,0.01956 0.194831,0.106869 0.285928,0.194027 0.107731,0.103076 0.177353,0.203388 0.199165,0.286962 0.01844,0.07067 0.03362,0.227116 0.03372,0.347659 1.01e-4,0.120543 -0.02273,0.277538 -0.05074,0.348878 -0.028,0.07134 -0.0907,0.17432 -0.139333,0.228845 -0.04863,0.05453 -0.147429,0.132003 -0.219554,0.172175 -0.09652,0.05375 -0.210972,0.07703 -0.433536,0.08815 -0.302399,0.0151 -0.302399,0.0151 -0.311449,0.52558 -0.009,0.510473 -0.009,0.510473 -0.263129,0.520663 -0.254077,0.01019 -0.254077,0.01019 -0.254077,-1.369347 z m 0.924662,-0.194748 c 0.0668,-0.01974 0.151627,-0.07672 0.188509,-0.126617 0.03689,-0.04989 0.06706,-0.14006 0.06706,-0.200362 0,-0.0603 -0.02406,-0.146191 -0.05346,-0.190864 -0.0294,-0.04467 -0.102693,-0.103114 -0.162867,-0.129869 -0.06017,-0.02675 -0.183646,-0.04865 -0.274381,-0.04865 -0.164975,0 -0.164975,0 -0.164975,0.366321 0,0.366322 0,0.366322 0.139334,0.366127 0.07663,-1.06e-4 0.193984,-0.01635 0.260782,-0.03608 z m 5.246474,0.533435 c 0.0087,-1.037911 0.0087,-1.037911 0.214058,-1.048311 0.183541,-0.0093 0.208088,-0.0026 0.230907,0.06305 0.02553,0.07345 0.02553,0.07345 0.08669,0.0016 0.03364,-0.03956 0.119706,-0.08869 0.191262,-0.1092 0.07964,-0.02281 0.141855,-0.02477 0.160406,-0.005 0.01667,0.01774 0.02585,0.131344 0.02042,0.252462 -0.0099,0.220213 -0.0099,0.220213 -0.140286,0.259013 -0.08814,0.02623 -0.154543,0.07693 -0.2049,0.156446 -0.0711,0.112282 -0.0745,0.148433 -0.0745,0.792799 0,0.675153 0,0.675153 -0.24637,0.675153 -0.246369,0 -0.246369,0 -0.237684,-1.037912 z m 1.303659,0.2375 c 0,-0.800414 0,-0.800414 -0.139333,-0.811142 -0.139334,-0.01073 -0.139334,-0.01073 -0.139334,-0.237498 0,-0.226771 0,-0.226771 0.139334,-0.237498 0.139333,-0.01073 0.139333,-0.01073 0.139333,-0.340156 0,-0.329429 0,-0.329429 0.24588,-0.329429 0.245883,0 0.245883,0 0.245883,0.331434 0,0.331434 0,0.331434 0.130512,0.331434 0.112048,0 0.133437,0.0124 0.151188,0.08767 0.01137,0.04822 0.01075,0.158113 -0.0014,0.244214 -0.02184,0.155001 -0.02334,0.156548 -0.151189,0.156548 -0.129127,0 -0.129127,0 -0.129127,0.802419 0,0.80242 0,0.80242 -0.245882,0.80242 -0.245881,0 -0.245881,0 -0.245881,-0.800413 z m -18.16244,0.154989 c 0,-0.0096 0.0074,-0.01744 0.01639,-0.01744 0.009,0 0.01639,0.0078 0.01639,0.01744 0,0.0096 -0.0074,0.01744 -0.01639,0.01744 -0.009,0 -0.01639,-0.0078 -0.01639,-0.01744 z m 27.112523,-0.418654 c 0,-0.0096 0.0074,-0.01744 0.0164,-0.01744 0.009,0 0.01639,0.0078 0.01639,0.01744 0,0.0096 -0.0074,0.01744 -0.01639,0.01744 -0.009,0 -0.0164,-0.0078 -0.0164,-0.01744 z M 18.225723,22.627887 c 0,-0.0096 0.0074,-0.01744 0.0164,-0.01744 0.009,0 0.01639,0.0078 0.01639,0.01744 0,0.0096 -0.0074,0.01744 -0.01639,0.01744 -0.009,0 -0.0164,-0.0078 -0.0164,-0.01744 z m 4.655354,-1.552506 c 0,-0.02558 0.0098,-0.03605 0.02185,-0.02325 0.01202,0.01279 0.01202,0.03373 0,0.04652 -0.01202,0.01279 -0.02185,0.0023 -0.02185,-0.02325 z m 12.52356,-0.889638 c 0,-0.0096 0.0074,-0.01744 0.0164,-0.01744 0.009,0 0.0164,0.0078 0.0164,0.01744 0,0.0096 -0.0074,0.01744 -0.0164,0.01744 -0.009,0 -0.0164,-0.0078 -0.0164,-0.01744 z M 13.996562,18.999558 c 0,-0.0096 0.0074,-0.01744 0.01639,-0.01744 0.009,0 0.01639,0.0078 0.01639,0.01744 0,0.0096 -0.0074,0.01744 -0.01639,0.01744 -0.009,0 -0.01639,-0.0078 -0.01639,-0.01744 z m 0.06557,-0.174439 c 0,-0.0096 0.0074,-0.01744 0.01639,-0.01744 0.009,0 0.01639,0.0078 0.01639,0.01744 0,0.0096 -0.0074,0.01744 -0.01639,0.01744 -0.009,0 -0.01639,-0.0078 -0.01639,-0.01744 z m 20.949095,-0.209326 c 0,-0.0096 0.0074,-0.01744 0.0164,-0.01744 0.009,0 0.0164,0.0078 0.0164,0.01744 0,0.0096 -0.0074,0.01744 -0.0164,0.01744 -0.009,0 -0.0164,-0.0078 -0.0164,-0.01744 z m -10.982702,-1.11641 c 0,-0.0096 0.0074,-0.01744 0.01639,-0.01744 0.009,0 0.01639,0.0078 0.01639,0.01744 0,0.0096 -0.0074,0.01744 -0.01639,0.01744 -0.009,0 -0.01639,-0.0078 -0.01639,-0.01744 z m 7.146952,-6.768228 c 0,-0.0096 0.0074,-0.01744 0.0164,-0.01744 0.009,0 0.01639,0.0078 0.01639,0.01744 0,0.0096 -0.0074,0.01744 -0.01639,0.01744 -0.009,0 -0.0164,-0.0078 -0.0164,-0.01744 z M 26.19228,9.4054197 c 0,-0.00959 0.0074,-0.017444 0.0164,-0.017444 0.009,0 0.01639,0.00785 0.01639,0.017444 0,0.00959 -0.0074,0.017444 -0.01639,0.017444 -0.009,0 -0.0164,-0.00785 -0.0164,-0.017444 z"
       id="path1" /></g></svg>
